<svg xmlns="http://www.w3.org/2000/svg" width="755.18842pt" height="225pt" viewBox="0 0 755.1884 224.99999"><path d="M29.286 198.565c.048 0 .982-.018 2.611-.123h.009c8.204-.477 34.55-2.887 61.78-14.817 14.331-6.279 55.093-33.006 55.093-61.78 0-12.044-7.327-18.943-19.819-18.943-19.018 0-42.01 15.312-67.698 42.03-.648.828-1.848.237 1.458-5.146 6.422-10.443 12.987-21.286 43.24-54.082 13.882-15.045 4.85-17.828 4.85-17.828s18.808-8.651 32.967-27.07c8.47-11.033 19.228-32.652 14.54-38.55-3.878-4.888-11.825-2.42-29.604 13.244-22.106 19.476-41.705 54.31-59.895 88.326-4.488 8.404-30.633 53.625-49.242 85.716-3.287-1.153-6.84-2.887-10.48-5.479l-2.278 4.002c1.877 1.954 5.365 4.545 9.767 6.641A21345.491 21345.491 0 0 1 .53 222.358c-1.24 2.144-.096 3.068 1.286 2.459a633.242 633.242 0 0 1 4.897-2.135c12.53-5.421 15.16-7.68 16.055-12.891 1.649-9.548 6.508-11.225 6.518-11.225m56.702-106.63c24.64-50.557 60.018-80.723 60.018-80.723 5.26-2.42-8.67 29.966-43 54.359-3.412 2.43-2.82 4.878-1.401 6.47.267.295 1.372 1.581-.543 4.277-4.621 6.518-17.294 19.58-15.074 15.617m23.163 24.545.781-.39c4.698-2.373 9.205-3.688 12.692-3.688 2.81 0 4.964.829 6.403 2.439 1.62 1.83 2.22 4.583 1.791 8.204-2.649 22.41-24.887 43.6-44.44 53.796-22.553 11.777-47.717 14.378-52.776 14.797-.296.01-.59.03-.915.039.439-.706 33.559-54.083 76.464-75.197M24.555 221.23l-2.2 3.764h730.623l2.21-3.763zM144.706 177.251c-5.46 9.967-3.277 15.436-2.086 17.323 1.229 1.953 3.125 3.077 5.192 3.077 1.916 0 3.745-1.02 5.012-2.792 22.24-31.033 55.902-64.696 67.965-67.945.924-.248 1.744-.381 2.449-.381.762 0 1.743.152 2.115.867.505.971.03 3.125-2.153 5.736-2.316 2.763-1.325 10.5 1.038 15.064 1.83 3.525 3.86 4.268 5.25 4.268 3.335 0 9.157-6.936 10.986-13.168 2.659-9.013 2.41-22.105-12.9-22.105-9.977 0-22.459 9.09-28.271 14.464-5.155 4.773-19.847 19.6-27.565 27.422-.782.79-1.134.581-.524-.381 4.545-7.175 13.006-20.181 14.568-22.449 2.087-3.02 3.03-4.916 2.659-9.223-.362-4.164-5.346-11.043-10.329-11.043-.171 0-.333.009-.495.018-7.232.705-.658 5.612-19.295 38.094-2.496 4.364-7.623 12.215-13.616 23.153M238.572 193.533c1.554 2.658 4.298 4.116 7.718 4.116 21.944 0 62.81-34.52 69.823-40.59-5.66 8.852-15.407 26.422-10.233 35.33 2.02 3.488 6.05 5.26 11.967 5.26 18.647 0 39.78-11.92 50.166-18.599-4.211 7.099-2.639 11.958-1.277 14.264 1.554 2.63 4.25 4.335 6.86 4.335 2.83 0 3.812-2 5.298-5.021 1.525-3.116 3.84-7.832 9.643-13.587l1.572-1.582c26.708-26.898 48.909-42.553 65.974-46.536.914-.21 1.724-.324 2.4-.324 1.687 0 2.078.667 2.202.886 2.296 3.888-7.146 18.39-10.157 23.211-8.576 13.75-16.78 27.708-10.624 38.046 2.086 3.516 6.088 5.298 11.881 5.298.277 0 .562-.01.848-.018 16.58-.467 34.893-9.662 47.46-17.39a22.572 22.572 0 0 0 1.268 4.908c3.268 8.375 11.252 13.587 21.924 14.302.981.066 1.982.095 3.01.095 23.783 0 56.913-17.017 72.406-25.783-7.832 13.11-5.345 18.227-1.763 21.543 1.21 1.115 2.363 1.658 3.535 1.658 2.563 0 5.04-2.582 8.28-8.642 4.469-8.356 44.63-46.517 66.288-55.978 2.782-1.21 5.069-1.83 6.803-1.83 1.515 0 2.496.458 3.01 1.41 1.478 2.706-1.257 8.395-3.725 12.683-6.46 11.205-9.604 14.892-13.568 21.905l-1.791 3.163c-2.897 5.079-5.936 15.636-1.791 22.315 2.325 3.745 6.46 5.65 12.291 5.65 32.263 0 65.802-27.317 77.807-39.56l-2.887-3.307c-2.23 2.906-37.931 35.445-69.956 35.445-2.163 0-4.974-.372-6.079-2.163-1.067-1.744-.457-4.745 1.715-8.46 1.43-2.45 4.05-6.108 7.09-10.349 10.795-15.083 25.573-35.73 20.933-46.183-1.315-2.973-4.088-4.897-8.242-5.707a15.839 15.839 0 0 0-3.002-.277c-19.656 0-57.664 32.435-70.203 43.64-.296.266-1.172.009-.867-.524 7.07-12.444 62.733-107.336 67.402-115.13 4.86-8.127.762-16.665-2.592-19.952-1.314-1.296-2.744-1.944-4.25-1.944-6.002 0-9.146 24.65-77.32 138.74-10.463 6.852-41.277 23.564-68.042 28.557-2.534.467-4.907.705-7.07.705-6.183 0-10.538-1.944-12.577-5.622-3.516-6.327-.18-17.284 9.147-30.061 13.902-19.057 35.312-30.757 44.526-30.757.248 0 .486.009.705.03 2.258.18 5.145 1.19 6.155 2.992.629 1.133.448 2.563-.553 4.22-2.668 4.44-5.697 7.9-7.708 10.186-1.934 2.21-2.458 2.811-2.22 3.62l.238.592.496.19c.629.238 1.381.362 2.248.362 4.926 0 12.987-3.687 18.895-10.738 3.249-3.888 10.624-13.387 8.9-17.694-.287-.715-.944-1.639-2.469-1.944-.8-.171-1.6-.248-2.382-.248-5.783 0-9.337 4.422-10.738 6.594-1.887-1.848-6.641-5.26-16.312-5.536-.305 0-.61-.009-.925-.009-10.214 0-26.488 4.555-41.524 17.341-16.35 13.912-23.258 27.299-24.563 37.923-11.853 7.803-29.795 17.941-43.058 17.941-.258 0-.515-.009-.772-.018-2.735-.085-4.478-.79-5.183-2.096-2.65-4.897 6.984-18.294 14.73-29.051 3.888-5.412 7.556-10.51 9.881-14.655 5.355-9.528 6.603-17.922 3.42-23.03-1.486-2.372-4.706-5.202-11.633-5.202-19.019 0-57.722 31.481-71.814 43.525-1.182 1.01-1.61.362-.8-.934 5.02-8.023 12.5-19.923 13.586-21.562.181-.276 2.535-3.24 2.459-6.956-.086-3.84-2.792-9.785-5.794-12.73-1.229-1.2-2.41-1.81-3.515-1.81-5.231 0-11.158 20.019-14.922 29.48-.486 1.21-5.202 10.129-10.3 19.143l-2.486 2.23c-.305.219-30.605 21.905-49.004 21.905-2.782 0-4.526-.724-5.326-2.24-3.545-6.679 10.357-26.555 16.226-33.948 9.243-2.897 14.312-13.855 13.873-22.897-.295-6.403-3.163-10.995-7.851-12.596a4.467 4.467 0 0 0-1.43-.248c-3.248 0-5.325 3.792-8.203 9.042-2.306 4.193-5.164 9.414-9.395 13.883-6.946 7.346-37.78 35.893-57.684 44.144-2.544 1.048-4.611 1.582-6.155 1.582-1.83 0-2.296-.753-2.458-1-1.02-1.649-.018-5.308 1.458-7.909.552-.99 1.905-3.344 3.706-6.48 6.394-11.128 18.218-31.9 20.067-35.597 3.859-7.717-4.136-18.494-8.824-18.494-7.05 0-4.659 7.918-16.931 32.31-1.03 2.04-1.525 3.497-10.014 18.009-6.708 11.472-10.596 21.2-7.328 26.793" style="stroke-width:9.52821"/></svg>