<?xml version="1.0" encoding="UTF-8"?>
<svg width="106px" height="30px" viewBox="0 0 106 30" version="1.1" xmlns="http://www.w3.org/2000/svg" xmlns:xlink="http://www.w3.org/1999/xlink">
    <title>Logo/Wapl/service page</title>
    <g id="Logo/Wapl/service-page" stroke="none" stroke-width="1" fill="none" fill-rule="evenodd">
        <path d="M55.0254972,11 C55.9852299,11 56.7715068,11.7480034 56.8410035,12.6967714 L56.8459969,12.8336163 L56.8459969,22.0016978 C56.8459969,25.5460719 53.9932677,28.4193548 50.4742478,28.4193548 C48.6910592,28.4193548 47.0789567,27.6815703 45.9224284,26.4925391 C44.7670402,27.6815703 43.1549377,28.4193548 41.3717491,28.4193548 C37.8527292,28.4193548 35,25.5460719 35,22.0016978 L35,12.8336163 L35.0049934,12.6967714 C35.0744902,11.7480034 35.8607671,11 36.8204997,11 C37.7802324,11 38.5665093,11.7480034 38.6360061,12.6967714 L38.6409995,12.8336163 L38.6409995,22.0016978 C38.6409995,23.5207153 39.8635977,24.7521222 41.3717491,24.7521222 C42.8799005,24.7521222 44.1024987,23.5207153 44.1024987,22.0016978 L44.1024987,12.8336163 L44.1074921,12.6967714 C44.1769889,11.7480034 44.9632658,11 45.9229985,11 C46.8827312,11 47.669008,11.7480034 47.7385048,12.6967714 L47.7434982,12.8336163 L47.7434982,22.0016978 C47.7434982,23.5207153 48.9660965,24.7521222 50.4742478,24.7521222 C51.9823992,24.7521222 53.2049975,23.5207153 53.2049975,22.0016978 L53.2049975,12.8336163 L53.2099908,12.6967714 C53.2794876,11.7480034 54.0657645,11 55.0254972,11 Z M65.9484957,11 C69.9702327,11 73.2304946,14.2837519 73.2304946,18.3344652 L73.2304946,26.5857385 C73.2304946,27.5984169 72.4154291,28.4193548 71.4099949,28.4193548 C70.4502622,28.4193548 69.6639853,27.6713514 69.5944885,26.7225835 L69.5894952,26.5857385 L69.5894952,24.7521222 L62.3074962,24.7521222 L62.3074962,26.5857385 C62.3074962,27.552386 61.5648435,28.344328 60.6228625,28.4143255 L60.4869964,28.4193548 C59.5272637,28.4193548 58.7409869,27.6713514 58.6714901,26.7225835 L58.6664967,26.5857385 L58.6664967,18.3344652 C58.6664967,14.2837519 61.9267587,11 65.9484957,11 Z M82.3329934,11 C86.3547304,11 89.6149924,14.2837519 89.6149924,18.3344652 C89.6149924,22.3851785 86.3547304,25.6689304 82.3329934,25.6689304 C81.006564,25.6689304 79.7629663,25.3117305 78.6918483,24.6876247 L78.6919939,26.5857385 C78.6919939,27.5984169 77.8769284,28.4193548 76.8714941,28.4193548 C75.9117614,28.4193548 75.1254846,27.6713514 75.0559878,26.7225835 L75.0509944,26.5857385 L75.0509944,18.3344652 C75.0509944,14.2837519 78.3112564,11 82.3329934,11 Z M93.2559918,11 C94.2157245,11 95.0020014,11.7480034 95.0714982,12.6967714 L95.0764916,12.8336163 L95.0764916,24.7521222 L100.537991,24.7521222 C101.497724,24.7521222 102.284,25.5001256 102.353497,26.4488936 L102.358491,26.5857385 C102.358491,27.552386 101.615838,28.344328 100.673857,28.4143255 L100.537991,28.4193548 L93.2559918,28.4193548 C92.2505576,28.4193548 91.4354921,27.5984169 91.4354921,26.5857385 L91.4354921,12.8336163 L91.4404855,12.6967714 C91.5099823,11.7480034 92.2962592,11 93.2559918,11 Z M82.3329934,14.6672326 C80.3221249,14.6672326 78.6919939,16.3091086 78.6919939,18.3344652 C78.6919939,20.3598218 80.3221249,22.0016978 82.3329934,22.0016978 C84.3438619,22.0016978 85.9739929,20.3598218 85.9739929,18.3344652 C85.9739929,16.3091086 84.3438619,14.6672326 82.3329934,14.6672326 Z M65.9484957,14.6672326 C63.9376272,14.6672326 62.3074962,16.3091086 62.3074962,18.3344652 L62.3074962,21.0848896 L69.5894952,21.0848896 L69.5894952,18.3344652 C69.5894952,16.3091086 67.9593642,14.6672326 65.9484957,14.6672326 Z" id="Shape-Copy-5" fill="#232D3B"></path>
        <path d="M49.2967691,3.63883588 C49.7157972,3.63883588 50.0948194,3.73478479 50.4299264,3.9268441 C50.7631279,4.11781128 51.0278431,4.37891062 51.2219124,4.70764393 C51.3882611,4.98942119 51.4850557,5.30298046 51.5126329,5.64791575 L51.520655,5.82299618 L51.5199887,7.52019275 L51.5127379,7.59479654 C51.4957471,7.68802215 51.4513728,7.76997199 51.381609,7.83532504 C51.2903091,7.92085249 51.1724754,7.96421756 51.0396145,7.96421756 C50.9333259,7.96421756 50.8366545,7.93646392 50.748452,7.87425781 L50.68387,7.82103873 L50.6362995,7.7644964 C50.5970765,7.70792359 50.5729675,7.64422558 50.5633644,7.57532903 L50.5615441,7.54775 L50.4402979,7.63994378 L50.2911964,7.73356283 C49.9803952,7.91126743 49.6281786,8 49.2384312,8 C48.8283519,8 48.4571538,7.9036485 48.1289847,7.71094048 C47.8031227,7.5195873 47.5447597,7.25815146 47.3559162,6.92925947 C47.1670696,6.60036207 47.0728833,6.23063048 47.0728833,5.82299618 C47.0728833,5.40990716 47.1698516,5.03707614 47.3643336,4.70764393 C47.5585426,4.37867402 47.8247082,4.11746336 48.1605582,3.92650588 C48.497905,3.73469735 48.8779198,3.63883588 49.2967691,3.63883588 Z M35.4591637,2 L39.4917725,2 L39.5817344,2.00735708 C39.6749385,2.02312759 39.7569994,2.06421599 39.8224073,2.1284063 C39.9081403,2.21254329 39.9509362,2.32174135 39.9509362,2.44513359 C39.9509362,2.54065234 39.9230959,2.62806128 39.8608702,2.70862005 L39.8076513,2.7677744 L39.7517697,2.81103527 C39.6950171,2.84735881 39.6311381,2.86973946 39.5622508,2.87865957 L39.4917725,2.88311069 L37.952792,2.88275 L37.9521302,7.51378006 L37.9447515,7.58600225 C37.9279929,7.6749634 37.8855572,7.7548475 37.8200477,7.82205981 C37.7288169,7.9156619 37.6083518,7.96421756 37.471822,7.96421756 C37.3667097,7.96421756 37.2704447,7.93333824 37.1827177,7.86799949 L37.1185184,7.81247836 L37.07076,7.75494713 C37.0308891,7.69767181 37.0058367,7.63422138 36.9958024,7.56657974 L36.9907816,7.4976145 L36.9900276,2.88275 L35.4426328,2.88244698 L35.3692018,2.87575361 C35.2759978,2.85998309 35.1939369,2.81889469 35.1285289,2.75470438 C35.0435005,2.67125888 35,2.56453203 35,2.44513359 C35,2.32174135 35.0427959,2.21254329 35.1285289,2.1284063 C35.1979982,2.06023024 35.2851171,2.01895585 35.3834305,2.00517313 L35.4591637,2 Z M55.5169829,3.67461832 C55.6551549,3.67461832 55.7743527,3.72185977 55.8576867,3.81727286 C55.9178101,3.88611101 55.9530523,3.96689427 55.9620881,4.06274811 L55.9639306,4.13751306 L55.9553195,4.20376237 C55.9444047,4.25638875 55.9248149,4.30691203 55.8962575,4.35603936 L55.8466593,4.4287718 L54.7264438,5.78825 L55.8832998,7.2412319 L55.9318443,7.30963522 C55.9863618,7.39928819 56.0099095,7.49331914 55.9961561,7.58780055 C55.9795886,7.70161395 55.923724,7.79810528 55.831571,7.86701008 C55.7475219,7.92985532 55.6534217,7.96421756 55.5534441,7.96421756 C55.4866213,7.96421756 55.4252796,7.95523189 55.3632762,7.93175334 L55.3008247,7.90323986 L55.251025,7.87025756 L55.1957695,7.8215874 L55.1419493,7.76172104 L54.0987592,6.4595 L53.0061094,7.81903435 L52.9506854,7.87315798 C52.8722426,7.93474405 52.7746366,7.96421756 52.665717,7.96421756 C52.5349732,7.96421756 52.4201712,7.92003527 52.3352662,7.83232535 C52.2725661,7.76755397 52.2328115,7.69050057 52.2174995,7.59566302 L52.2106218,7.52111437 L52.2163296,7.45271645 C52.2261016,7.39719502 52.2469312,7.3441975 52.2768066,7.29526405 L52.3281524,7.22510445 L53.4946718,5.79275 L52.3885408,4.41415202 L52.3452419,4.35482468 C52.296764,4.27724001 52.2727806,4.19312463 52.2759478,4.10609314 C52.2798819,3.99799007 52.3187719,3.89956196 52.3906433,3.81727286 C52.4573105,3.74094239 52.5469306,3.69544177 52.6603064,3.68071858 L52.7498051,3.67544615 L52.8288832,3.68348822 C52.9019989,3.69715575 52.9688426,3.72633519 53.0342879,3.77682183 L53.0994475,3.83462552 L54.1207832,5.11775 L55.1662093,3.8217353 C55.2067342,3.77931345 55.2525346,3.74560264 55.3036503,3.72199598 C55.3713684,3.69072188 55.4431579,3.67461832 55.5169829,3.67461832 Z M44.4310354,3.63167939 C44.7542616,3.63167939 45.0448277,3.70808508 45.2982941,3.86116069 C45.5510469,4.01380536 45.7480876,4.22896648 45.8876999,4.50299306 C46.0024469,4.72821476 46.0688092,4.98390905 46.0877426,5.26907449 L46.0934187,5.44370229 L46.0928114,7.51949619 L46.0859823,7.59337731 C46.0699604,7.68547273 46.0279322,7.76678597 45.9612437,7.83223301 C45.87184,7.91997233 45.7537615,7.96421756 45.6196706,7.96421756 C45.4868097,7.96421756 45.368976,7.92085249 45.2776761,7.83532504 C45.2036549,7.76598377 45.1590782,7.67906994 45.1442084,7.58064926 L45.1386301,7.50477099 L45.1387666,5.45068595 L45.1337026,5.31721187 C45.1147525,5.08223225 45.0418225,4.89894895 44.9168278,4.76136212 C44.7745863,4.60479095 44.5980382,4.52910305 44.3726975,4.52910305 C44.1605111,4.52910305 43.9875767,4.58633096 43.8497653,4.69805177 L43.7837674,4.75844059 L43.7228633,4.82789777 C43.6235855,4.95503372 43.565856,5.11347245 43.5512638,5.30813948 L43.5476977,5.42932649 L43.5478195,7.51949619 L43.5409905,7.59337731 C43.5249686,7.68547273 43.4829404,7.76678597 43.4162518,7.83223301 C43.3268482,7.91997233 43.2087697,7.96421756 43.0746787,7.96421756 C42.9418179,7.96421756 42.8239841,7.92085249 42.7326843,7.83532504 C42.6586631,7.76598377 42.6140864,7.67906994 42.5992165,7.58064926 L42.5936383,7.50477099 L42.5937748,5.45068595 L42.5887107,5.31721187 C42.5697606,5.08223225 42.4968306,4.89894895 42.3718359,4.76136212 C42.2295944,4.60479095 42.0530464,4.52910305 41.8277056,4.52910305 C41.6143774,4.52910305 41.4395859,4.5853383 41.2995966,4.69499048 L41.2324848,4.75425493 L41.1705394,4.82201518 C41.0880698,4.92274955 41.0335951,5.04120573 41.0075044,5.17596418 L40.9932644,5.2800675 L40.9888506,5.38645038 L40.9882432,7.51949619 L40.9814141,7.59337731 C40.9653923,7.68547273 40.923364,7.76678597 40.8566755,7.83223301 C40.7672719,7.91997233 40.6491934,7.96421756 40.5151024,7.96421756 C40.3768583,7.96421756 40.2563142,7.92063332 40.166237,7.83223301 C40.0955999,7.76291086 40.0533901,7.67686666 40.0393317,7.5796713 L40.034062,7.50477099 L40.0346647,4.12655247 L40.0414567,4.05263232 C40.0572198,3.96128744 40.0982315,3.88002434 40.1630926,3.81333954 C40.2530835,3.72081842 40.3750544,3.67461832 40.5151024,3.67461832 C40.6238618,3.67461832 40.7220606,3.70462782 40.809071,3.77085582 L40.8722213,3.82741481 L40.9168556,3.88499677 L40.9346871,3.9185 L41.0232511,3.86066813 C41.1935768,3.75892166 41.3788129,3.69106438 41.5776799,3.65713135 L41.7293659,3.63804293 L41.8860436,3.63167939 C42.1553987,3.63167939 42.4020733,3.6847389 42.6280199,3.79388832 L42.7611162,3.86613301 L42.8752837,3.94286888 L42.9661566,4.01577592 L43.0513152,4.09579479 L43.1221444,4.1735 L43.1601086,4.13183802 C43.2072711,4.08437831 43.2573178,4.03995266 43.3102178,3.99859414 L43.3917038,3.93886083 L43.5219072,3.85794144 C43.7910565,3.70700492 44.0953328,3.63167939 44.4310354,3.63167939 Z M49.2967697,4.51479008 C49.055547,4.51479008 48.8409044,4.57103073 48.6487195,4.68378504 C48.4539176,4.79807478 48.3000259,4.95220493 48.185043,5.14863415 C48.0706238,5.34410062 48.013088,5.56786818 48.013088,5.82299618 C48.013088,6.07344491 48.0706533,6.29628115 48.1854717,6.49451616 C48.3002365,6.6926586 48.4535233,6.84618298 48.6473502,6.95783304 C48.8398098,7.06869546 49.0549664,7.1240458 49.2967697,7.1240458 C49.5433402,7.1240458 49.7594021,7.06873109 49.9490203,6.95830509 C50.1403004,6.84691123 50.2911887,6.69369025 50.4036787,6.49581082 C50.5165382,6.29728141 50.5731592,6.07396508 50.5731592,5.82299618 C50.5731592,5.56734859 50.5165665,5.34309611 50.404097,5.14733533 C50.2913951,4.95117 50.1399068,4.7973397 49.9476483,4.68330266 C49.7583031,4.57099365 49.5427608,4.51479008 49.2967697,4.51479008 Z" id="Tmax-Copy-5" fill="#232D3B"></path>
        <path d="M23.5902967,16.8400104 L23.7054264,16.9459338 L24.4527266,17.7068543 L25.1428373,17.0051479 C25.6607974,16.4779285 26.4604085,16.4119974 27.0487264,16.8074298 L27.1713808,16.8992271 L27.2864891,17.0051479 C27.8415099,17.5700904 27.8761987,18.4639739 27.3905555,19.0700341 L27.2864891,19.1872257 L26.596679,19.889133 L27.9118344,21.2275375 C28.4297613,21.754723 28.4945022,22.5685267 28.1060382,23.167467 L28.0158591,23.2923399 L27.9118064,23.4095387 C27.6237401,23.7026368 27.2390972,23.8614116 26.8399569,23.8614116 C26.4905655,23.8614116 26.1524857,23.7398998 25.8804553,23.5131026 L25.7680743,23.4095051 L24.4527266,22.0704051 L22.0130907,24.553653 L23.3290571,25.8883586 C23.8479139,26.4145857 23.9140654,27.2283584 23.526667,27.8279429 L23.4367107,27.9529641 L23.3328684,28.0703314 C23.0447138,28.3646965 22.6592734,28.5241725 22.2590857,28.5241725 C21.9106111,28.5241725 21.5732571,28.4031977 21.301431,28.1773613 L21.1891047,28.0742011 L19.8701272,26.7359317 L17.107551,29.5481272 C16.8915013,29.7679507 16.6211272,29.9122174 16.331056,29.9706118 L16.1845392,29.9926052 L16.0357015,30 C15.6363535,30 15.2518233,29.8412589 14.9638239,29.5479934 C14.4089023,28.9831517 14.3742197,28.0892841 14.8597782,27.4832125 L14.9638264,27.3660182 L17.7222192,24.5566728 L16.9752525,23.8001656 C16.45641,23.2738472 16.3902604,22.4601521 16.7776476,21.8605999 L16.8676014,21.7355849 L16.9714407,21.618222 C17.5253543,21.0522518 18.40357,21.0153663 18.9998921,21.5086176 L19.1152183,21.6143367 L19.8651827,22.3754007 L22.3087742,19.8881264 L21.5616573,19.1278922 C21.0437447,18.6006154 20.9790057,17.7868088 21.3674401,17.1878995 L21.4576123,17.0630338 L21.5616853,16.9458144 C22.1167225,16.3809686 22.9948987,16.3456986 23.5902967,16.8400104 Z M27.9397811,6.79518804 C28.4948194,7.36003501 28.5295093,8.25402441 28.0438624,8.86000242 L27.9397952,8.97717501 L26.3771415,10.5671391 L29.5560627,13.8025433 C30.1109843,14.3673849 30.1456669,15.2613449 29.6601105,15.8674261 L29.5560627,15.9846211 C29.2680197,16.2778133 28.8834896,16.4365225 28.4841851,16.4365225 C28.1348519,16.4365225 27.7967101,16.3149921 27.5246828,16.08821 L27.4123076,15.9846211 L24.2331891,12.7494178 L12.7588902,24.4278297 L13.5962219,25.2793319 C14.1511457,25.8441758 14.1858285,26.7381456 13.7002701,27.3441303 L13.5962219,27.4613046 C13.3081713,27.7545045 12.9235281,27.9133112 12.5243443,27.9133112 C12.1750965,27.9133112 11.8369483,27.7917492 11.5648676,27.5649868 L11.4524667,27.4614097 L10.6159267,26.6091018 L9.30766757,27.9424841 C9.05562992,28.1990273 8.72971937,28.3526069 8.38467703,28.3869933 L8.23579,28.3943855 C7.83653034,28.3943855 7.45190423,28.2356367 7.16401577,27.9424841 C6.60899506,27.3775416 6.57430626,26.483658 7.05994939,25.8775979 L7.16401577,25.7604062 L13.1297307,19.6878158 L12.3481757,18.9118059 C11.7865615,18.3538736 11.7413175,17.4603341 12.2196966,16.8484068 L12.3223563,16.7299591 C12.8705893,16.1582043 13.7483608,16.1121458 14.3495267,16.5991714 L14.4658921,16.7036864 L15.2726942,17.5055371 L17.6203617,15.1159017 L16.8358919,14.3175839 C16.2808712,13.7526414 16.2461824,12.8587578 16.7318256,12.2526977 L16.8358919,12.1355061 C17.3908352,11.5706424 18.2691154,11.5353713 18.8644328,12.0296869 L18.9795437,12.1356112 L19.7643141,12.9346296 L22.0902256,10.5671391 L21.3052715,9.76841292 C20.7502508,9.20347041 20.715562,8.3094944 21.2012051,7.7034227 L21.3052715,7.58622988 C21.8601953,7.02138598 22.7384648,6.98608323 23.3338069,7.48032165 L23.4489233,7.58622988 L24.2331891,8.38486044 L25.7961293,6.79521661 C26.3880513,6.19259222 27.3478872,6.19259222 27.9397811,6.79518804 Z M22.9437944,1.81494213 L23.0589091,1.92086968 C23.613932,2.48581442 23.6486209,3.37970781 23.1629763,3.98567107 L23.0589096,4.10284188 L7.92313041,19.5076369 L8.58436285,20.1778691 C9.1407531,20.7412571 9.17769171,21.6351454 8.69363174,22.242373 L8.58987264,22.3598135 C8.30171939,22.6547657 7.91582317,22.8146384 7.51522732,22.8146384 C7.16705305,22.8146384 6.83008174,22.6939313 6.55845265,22.4685061 L6.44619857,22.3655306 L5.779178,21.6899155 L4.42678149,23.0681514 C4.17476486,23.3246732 3.84878762,23.4782689 3.50377285,23.5126597 L3.35490393,23.5200528 C2.95566599,23.5200528 2.57104538,23.3613192 2.28301233,23.0681371 C1.72810384,22.5031955 1.69342206,21.6093216 2.17897855,21.0033513 L2.28302637,20.8861787 L3.63028105,19.514683 L0.446724227,16.2904649 C-0.109663873,15.727079 -0.146602248,14.8332006 0.33747773,14.2258541 L0.441241101,14.108388 C0.994732543,13.5420536 1.87282146,13.504455 2.46949321,13.9971918 L2.58489576,14.1028107 L5.77423346,17.3324043 L8.2949598,14.7656097 L7.52654451,13.9829564 C6.9715238,13.4180139 6.936835,12.5241303 7.42247812,11.9180702 L7.52654451,11.8008786 C8.08148777,11.2360149 8.959768,11.2007438 9.55508532,11.6950595 L9.67019631,11.8009837 L10.4389122,12.5843377 L12.7855908,10.1947023 L12.0167964,9.41243474 C11.4618726,8.84759083 11.4271899,7.95362099 11.9127367,7.34764811 L12.0167824,7.23047635 C12.5716876,6.66553798 13.449956,6.63019645 14.045411,7.1244458 L14.1605516,7.23035688 L14.9295432,8.01343017 L17.2554546,5.64593966 L16.486176,4.8630534 C15.9312521,4.29820949 15.8965694,3.40423964 16.3821393,2.79824322 L16.48619,2.68106643 C17.0412411,2.11620638 17.9194182,2.08086975 18.5148106,2.57516744 L18.629939,2.68108881 L19.3984181,3.46366099 L20.9152433,1.92088397 C21.4701701,1.3559236 22.3484588,1.32061357 22.9437944,1.81494213 Z M14.9786396,0.451966511 C15.5335459,1.01690596 15.5682275,1.91076996 15.0826729,2.51683675 L14.9786255,2.63403008 L4.86088602,12.9326388 C4.57284299,13.2258311 4.18831292,13.3845403 3.78900846,13.3845403 C3.38977052,13.3845403 3.00514991,13.2258066 2.71711686,12.9326246 C2.16221056,12.3676851 2.12752892,11.4738211 2.61308349,10.8677543 L2.7171309,10.750561 L3.53336807,9.91889766 L2.11980173,8.47950769 C1.60176807,7.95231927 1.53701386,7.13849836 1.9255203,6.53958992 L2.01570933,6.41472465 L2.11977365,6.29753501 C2.6747005,5.73257464 3.55298922,5.69726462 4.14832091,6.19158927 L4.26343484,6.29751599 L5.67732048,7.73661899 L8.02399902,5.34799017 L6.61003962,3.90897172 C6.0921107,3.38178407 6.02736958,2.56789116 6.41580687,1.96903677 L6.50597983,1.84418509 L6.61002558,1.72701333 C7.16493082,1.16207496 8.04319916,1.12673343 8.63865802,1.62098668 L8.75379939,1.72689859 L10.1669625,3.1657115 L12.8348704,0.451952222 C13.4268925,-0.150653122 14.3866034,-0.150653122 14.9786396,0.451966511 Z" id="Combined-Shape" fill="#232D3B"></path>
    </g>
</svg>